HIERARCHY
ROOT Hips
{
	OFFSET 0.00000 0.00000 0.00000
	CHANNELS 6 Xposition Yposition Zposition Zrotation Yrotation Xrotation 
	JOINT LHipJoint
	{
		OFFSET 0 0 0
		CHANNELS 3 Zrotation Yrotation Xrotation
		JOINT LeftUpLeg
		{
			OFFSET 1.57338 -1.94743 0.52196
			CHANNELS 3 Zrotation Yrotation Xrotation
			JOINT LeftLeg
			{
				OFFSET 2.60333 -7.15259 0.00000
				CHANNELS 3 Zrotation Yrotation Xrotation
				JOINT LeftFoot
				{
					OFFSET 2.77855 -7.63400 0.00000
					CHANNELS 3 Zrotation Yrotation Xrotation
					JOINT LeftToeBase
					{
						OFFSET 0.19847 -0.54529 2.28466
						CHANNELS 3 Zrotation Yrotation Xrotation
						End Site
						{
							OFFSET 0.00000 -0.00000 1.17993
						}
					}
				}
			}
		}
	}
	JOINT RHipJoint
	{
		OFFSET 0 0 0
		CHANNELS 3 Zrotation Yrotation Xrotation
		JOINT RightUpLeg
		{
			OFFSET -1.61527 -1.94743 0.52196
			CHANNELS 3 Zrotation Yrotation Xrotation
			JOINT RightLeg
			{
				OFFSET -2.53829 -6.97390 0.00000
				CHANNELS 3 Zrotation Yrotation Xrotation
				JOINT RightFoot
				{
					OFFSET -2.80762 -7.71387 0.00000
					CHANNELS 3 Zrotation Yrotation Xrotation
					JOINT RightToeBase
					{
						OFFSET -0.30536 -0.83898 2.28801
						CHANNELS 3 Zrotation Yrotation Xrotation
						End Site
						{
							OFFSET -0.00000 -0.00000 1.21323
						}
					}
				}
			}
		}
	}
	JOINT LowerBack
	{
		OFFSET 0 0 0
		CHANNELS 3 Zrotation Yrotation Xrotation
		JOINT Spine
		{
			OFFSET -0.04381 1.99497 -0.19778
			CHANNELS 3 Zrotation Yrotation Xrotation
			JOINT Spine1
			{
				OFFSET -0.01959 2.01295 -0.04372
				CHANNELS 3 Zrotation Yrotation Xrotation
				JOINT Neck
				{
					OFFSET 0 0 0
					CHANNELS 3 Zrotation Yrotation Xrotation
					JOINT Neck1
					{
						OFFSET -0.05459 1.76913 0.09708
						CHANNELS 3 Zrotation Yrotation Xrotation
						JOINT Head
						{
							OFFSET 0.09461 1.77368 -0.11172
							CHANNELS 3 Zrotation Yrotation Xrotation
							End Site
							{
								OFFSET 0.03812 1.78157 -0.04834
							}
						}
					}
				}
				JOINT LeftShoulder
				{
					OFFSET 0 0 0
					CHANNELS 3 Zrotation Yrotation Xrotation
					JOINT LeftArm
					{
						OFFSET 3.50922 1.24034 -0.28866
						CHANNELS 3 Zrotation Yrotation Xrotation
						JOINT LeftForeArm
						{
							OFFSET 5.40188 -0.00000 0.00000
							CHANNELS 3 Zrotation Yrotation Xrotation
							JOINT LeftHand
							{
								OFFSET 3.68559 -0.00000 0.00000
								CHANNELS 3 Zrotation Yrotation Xrotation
								JOINT LeftFingerBase
								{
									OFFSET 0 0 0
									CHANNELS 3 Zrotation Yrotation Xrotation
									JOINT LeftHandIndex1
									{
										OFFSET 0.61753 -0.00000 0.00000
										CHANNELS 3 Zrotation Yrotation Xrotation
										End Site
										{
											OFFSET 0.49787 -0.00000 0.00000
										}
									}
								}
								JOINT LThumb
								{
									OFFSET 0 0 0
									CHANNELS 3 Zrotation Yrotation Xrotation
									End Site
									{
										OFFSET 0.50547 -0.00000 0.50547
									}
								}
							}
						}
					}
				}
				JOINT RightShoulder
				{
					OFFSET 0 0 0
					CHANNELS 3 Zrotation Yrotation Xrotation
					JOINT RightArm
					{
						OFFSET -2.95373 1.39649 -0.27346
						CHANNELS 3 Zrotation Yrotation Xrotation
						JOINT RightForeArm
						{
							OFFSET -6.10670 -0.00000 -0.00000
							CHANNELS 3 Zrotation Yrotation Xrotation
							JOINT RightHand
							{
								OFFSET -3.63052 -0.00000 0.00000
								CHANNELS 3 Zrotation Yrotation Xrotation
								JOINT RightFingerBase
								{
									OFFSET 0 0 0
									CHANNELS 3 Zrotation Yrotation Xrotation
									JOINT RightHandIndex1
									{
										OFFSET -0.58385 -0.00000 0.00000
										CHANNELS 3 Zrotation Yrotation Xrotation
										End Site
										{
											OFFSET -0.47071 -0.00000 0.00000
										}
									}
								}
								JOINT RThumb
								{
									OFFSET 0 0 0
									CHANNELS 3 Zrotation Yrotation Xrotation
									End Site
									{
										OFFSET -0.47790 -0.00000 0.47790
									}
								}
							}
						}
					}
				}
			}
		}
	}
}
MOTION
Frames: 15
Frame Time: .0083333
10.1767 18.94 5.0129 0 0 0 0 0 0 -21 0 0 0 0 0 0 0 0 0 0 0 0 0 0 21 0 0 0 0 0 0 0 0 0 0 0 0 0 0 0 0 0 0 0 0 0 0 -16 0 0 21 0 0 11 0 0 0 -8 0 0 0 0 0 0 0 0 0 0 0 0 0 0 0 0 0 0 0 0 8 0 0 0 0 0 0 0 0 0 0 0 0 0 0 0 0 0
10.1767 18.9400 5.0129 8.3806 -43.0322 -0.6878 0.0000 0.0000 0.0000 -27.2053 8.2287 2.6712 0.6783 5.2660 14.6689 -0.4361 15.5187 -16.7137 1.1718 -6.8712 -19.3343 0.0000 0.0000 0.0000 9.2802 25.6815 -16.2670 -1.6199 -8.0248 22.7894 1.7325 -24.9056 -21.1197 -0.4506 -4.3066 11.9408 -1.3927 -2.4549 5.2022 3.2670 -3.3225 1.7571 4.3383 -1.6867 -0.8291 -7.9471 -9.1672 -5.3179 8.7122 -14.7279 26.5871 2.7262 -6.8593 10.6399 0.0000 0.0000 0.0000 -92.6839 -5.2514 10.0120 14.7076 -23.7372 -3.1073 -0.0000 -0.0000 3.0883 24.8485 22.1626 9.9093 -7.1250 0.0000 -0.0000 -4.2665 54.1043 -0.9561 0.0000 0.0000 0.0000 79.6119 -0.9355 14.5580 -13.1794 21.5495 -2.5188 0.0000 0.0000 18.0295 -22.1784 5.3265 -2.1672 7.1250 -0.0000 -0.0000 3.3593 -24.2314 1.6874
10.0868 18.9479 5.0430 8.6471 -43.2532 -0.9640 0.0000 0.0000 0.0000 -27.1682 8.4872 2.6068 0.7323 5.4674 15.2467 -0.4676 15.5327 -16.2500 1.2442 -7.0726 -19.9305 0.0000 0.0000 0.0000 9.4409 25.5040 -16.0977 -1.6594 -8.1174 23.0712 1.6534 -24.5235 -21.0743 -0.4084 -4.1024 11.3648 -1.3478 -2.4636 5.2037 3.2274 -3.3321 1.7512 4.2726 -1.6908 -0.8402 -7.7697 -9.1782 -5.2400 8.5897 -14.7262 26.4734 2.6598 -6.8599 10.5566 0.0000 -0.0000 0.0000 -92.5035 -5.1547 11.0418 14.7837 -23.8439 -3.1380 -0.0000 -0.0000 1.8192 26.0191 21.5518 10.1660 -7.1250 0.0000 -0.0000 -2.8667 53.6827 -0.6124 0.0000 -0.0000 0.0000 79.5030 -0.9808 16.2398 -13.3792 21.8403 -2.5927 0.0000 0.0000 15.2594 -23.7111 4.8729 -2.1366 7.1250 -0.0000 -0.0000 2.2126 -24.6601 1.0884
9.9959 18.9538 5.0650 8.7425 -43.5245 -1.0882 0.0000 0.0000 0.0000 -26.9411 8.7835 2.3207 0.8101 5.7438 16.0428 -0.4733 15.3818 -15.8463 1.2965 -7.2142 -20.3515 0.0000 0.0000 0.0000 9.7326 25.7050 -15.7977 -1.6838 -8.1739 23.2435 1.5936 -24.3357 -21.3305 -0.4155 -4.1377 11.4644 -1.1899 -2.4412 5.2176 3.1991 -3.2944 1.7508 4.1531 -1.6710 -0.8624 -7.7428 -9.2103 -5.2655 8.6478 -14.7925 26.4531 2.6655 -6.8818 10.5635 -0.0000 -0.0000 0.0000 -92.2738 -5.1368 11.6289 14.8603 -23.9511 -3.1690 -0.0000 -0.0000 1.2720 26.2322 21.6649 10.3102 -7.1250 0.0000 -0.0000 -2.6754 53.8461 -0.5822 -0.0000 -0.0000 0.0000 79.4894 -0.8859 16.8076 -13.5189 22.0427 -2.6449 0.0000 0.0000 14.4077 -24.2970 3.8974 -1.7576 7.1250 -0.0000 -0.0000 1.7642 -25.7045 0.8248
9.9005 18.9599 5.0892 8.7564 -43.9276 -1.2039 0.0000 0.0000 0.0000 -26.6421 9.1647 2.0936 0.8841 5.9937 16.7662 -0.4751 15.2774 -15.5978 1.2999 -7.2231 -20.3780 0.0000 0.0000 0.0000 10.1528 25.8168 -15.4777 -1.7079 -8.2293 23.4126 1.5274 -24.0328 -21.3584 -0.4008 -4.0646 11.2586 -1.0859 -2.4220 5.2955 3.2258 -3.2626 1.7215 4.1257 -1.6535 -0.9428 -7.8054 -9.2000 -5.2982 8.7222 -14.8174 26.5919 2.6957 -6.8899 10.6360 -0.0000 0.0000 0.0000 -92.2251 -4.9645 11.2099 15.1152 -24.3064 -3.2732 -0.0000 -0.0000 1.6511 25.1137 22.5396 10.1858 -7.1250 0.0000 -0.0000 -4.1068 54.5576 -0.9656 -0.0000 0.0000 0.0000 79.4649 -0.8094 16.9920 -13.6317 22.2057 -2.6873 0.0000 0.0000 14.4998 -24.2313 3.4426 -1.5481 7.1250 -0.0000 -0.0000 1.8116 -26.2048 0.8258
9.8025 18.9668 5.1219 8.9629 -44.4104 -1.4930 0.0000 0.0000 0.0000 -26.5392 9.2514 2.0063 0.9692 6.2678 17.5636 -0.4491 15.2162 -15.9024 1.1623 -6.8441 -19.2544 0.0000 0.0000 0.0000 10.4454 25.7435 -15.1557 -1.7286 -8.2763 23.5566 1.4439 -23.5727 -21.2063 -0.3716 -3.9154 10.8388 -1.0796 -2.3752 5.3508 3.2200 -3.1985 1.6732 4.1172 -1.6195 -1.0292 -7.7643 -9.1591 -5.1996 8.6321 -14.7652 26.6689 2.6696 -6.8763 10.6290 -0.0000 0.0000 0.0000 -92.2588 -4.7037 10.7434 15.3694 -24.6582 -3.3786 -0.0000 -0.0000 1.6239 24.2157 22.9788 9.9583 -7.1250 0.0000 -0.0000 -5.1948 54.8410 -1.2582 -0.0000 0.0000 0.0000 79.3812 -0.7721 16.7966 -13.6592 22.2454 -2.6978 0.0000 0.0000 15.2346 -24.5963 2.2622 -1.0352 7.1250 -0.0000 -0.0000 1.5313 -27.4911 0.6517
9.7075 18.9772 5.1447 9.1954 -44.6759 -1.6620 0.0000 0.0000 0.0000 -26.4083 9.0067 1.8212 1.0612 6.5496 18.3878 -0.3884 14.8992 -16.2431 0.9600 -6.2387 -17.4786 0.0000 0.0000 0.0000 10.6240 25.5730 -15.0186 -1.7492 -8.3228 23.6988 1.3716 -23.1818 -21.1164 -0.3563 -3.8350 10.6129 -1.1115 -2.3951 5.3793 3.2361 -3.2230 1.5549 4.1584 -1.6281 -1.1622 -7.7990 -9.1085 -5.0681 8.5884 -14.6958 26.7007 2.6760 -6.8592 10.6072 0.0000 0.0000 0.0000 -92.2865 -4.4731 10.5536 15.4518 -24.7717 -3.4130 -0.0000 -0.0000 1.4433 24.1856 22.7160 9.8390 -7.1250 0.0000 -0.0000 -5.1375 54.5581 -1.2088 0.0000 0.0000 0.0000 79.3025 -0.6621 15.6772 -13.6408 22.2189 -2.6908 0.0000 0.0000 17.4643 -23.9029 1.8875 -0.8363 7.1250 -0.0000 -0.0000 2.0679 -27.9134 0.8598
9.6110 18.9827 5.1666 9.3314 -45.0003 -1.7482 0.0000 0.0000 0.0000 -26.1908 9.1153 1.4416 1.1697 6.8652 19.3166 -0.3978 14.7298 -15.7615 0.9652 -6.2552 -17.5266 0.0000 0.0000 0.0000 10.8740 25.4475 -14.9058 -1.7666 -8.3621 23.8194 1.2969 -22.7701 -21.0245 -0.3482 -3.7914 10.4904 -1.0760 -2.3897 5.3261 3.2573 -3.2119 1.4746 4.1597 -1.6206 -1.2169 -7.9322 -9.0897 -5.0615 8.6521 -14.6961 26.8302 2.7193 -6.8657 10.6711 0.0000 0.0000 0.0000 -92.2230 -4.3604 10.5036 15.4216 -24.7301 -3.4004 -0.0000 -0.0000 1.3735 24.1889 22.7744 9.8640 -7.1250 0.0000 -0.0000 -5.1537 54.6202 -1.2205 0.0000 0.0000 0.0000 79.2896 -0.6288 16.1724 -13.8274 22.4874 -2.7617 0.0000 0.0000 16.5258 -23.5144 4.0937 -1.7791 7.1250 -0.0000 -0.0000 2.3562 -25.5162 1.1123
9.5140 18.9864 5.1896 9.5159 -45.4106 -1.9311 0.0000 0.0000 0.0000 -26.0245 9.5498 0.9978 1.2917 7.2012 20.3129 -0.4702 14.8064 -14.6707 1.0433 -6.4957 -18.2297 0.0000 0.0000 0.0000 11.1277 25.3813 -14.6963 -1.7835 -8.3997 23.9347 1.2219 -22.3520 -20.9418 -0.3389 -3.7412 10.3497 -1.0542 -2.3809 5.2792 3.2625 -3.1986 1.4397 4.1507 -1.6134 -1.2287 -8.0019 -9.0772 -5.0134 8.5869 -14.6675 26.8852 2.7133 -6.8684 10.6796 0.0000 0.0000 0.0000 -92.1656 -4.2890 10.3209 15.3718 -24.6615 -3.3796 -0.0000 -0.0000 1.3327 24.0599 22.9709 9.8843 -7.1250 0.0000 -0.0000 -5.3557 54.8012 -1.2921 0.0000 0.0000 0.0000 79.1810 -0.5440 16.1990 -13.9235 22.6253 -2.7986 0.0000 0.0000 16.9670 -24.6558 0.7339 -0.3368 7.1250 -0.0000 -0.0000 1.4949 -29.1709 0.5768
9.4184 18.9915 5.2096 9.4220 -45.7777 -1.9143 0.0000 0.0000 0.0000 -25.6388 9.9675 0.4878 1.4341 7.5718 21.4208 -0.5401 14.9276 -13.5851 1.1673 -6.8584 -19.2965 0.0000 0.0000 0.0000 11.6154 25.3599 -14.4555 -1.8020 -8.4408 24.0611 1.1626 -22.0256 -20.9020 -0.3151 -3.6084 9.9775 -0.7913 -2.4066 5.2149 3.2904 -3.2192 1.4219 4.0300 -1.6239 -1.2226 -8.0540 -9.0478 -4.9361 8.5303 -14.6165 26.9091 2.7123 -6.8604 10.6677 -0.0000 0.0000 0.0000 -92.0853 -4.2802 10.0298 15.2860 -24.5430 -3.3438 -0.0000 -0.0000 1.1088 24.0640 22.8868 9.8526 -7.1250 0.0000 -0.0000 -5.3225 54.7135 -1.2727 -0.0000 0.0000 0.0000 79.0781 -0.4622 16.7271 -14.1249 22.9130 -2.8766 0.0000 0.0000 16.7970 -25.0892 -0.9040 0.4232 7.1250 -0.0000 -0.0000 1.1781 -30.9767 0.4038
9.3143 18.9947 5.2452 9.4947 -46.4138 -2.1915 0.0000 0.0000 0.0000 -25.4185 10.6021 0.1569 1.5857 7.9439 22.5438 -0.6040 15.1724 -12.8116 1.4267 -7.5529 -21.3640 0.0000 0.0000 0.0000 12.0766 25.3257 -14.0284 -1.8224 -8.4860 24.2001 1.0849 -21.5191 -20.6856 -0.2806 -3.4068 9.4133 -0.5992 -2.3492 5.1441 3.2484 -3.1362 1.4805 3.8683 -1.5842 -1.1418 -7.9638 -9.0235 -4.9938 8.3584 -14.5799 27.1094 2.6383 -6.8494 10.7283 0.0000 -0.0000 0.0000 -91.9712 -4.2121 9.7679 15.2020 -24.4268 -3.3090 -0.0000 -0.0000 0.8144 24.0699 22.7235 9.7900 -7.1250 0.0000 -0.0000 -5.2610 54.5428 -1.2360 0.0000 -0.0000 0.0000 79.1605 -0.2524 16.6683 -14.2229 23.0525 -2.9148 0.0000 0.0000 17.1000 -25.1510 -1.0807 0.5074 7.1250 -0.0000 -0.0000 1.1325 -31.1725 0.3828
9.2146 18.9979 5.2553 9.7793 -46.7269 -2.2800 0.0000 0.0000 0.0000 -25.2858 10.8474 -0.5812 1.7538 8.3332 23.7309 -0.6320 15.1268 -11.9779 1.5497 -7.8573 -22.2815 0.0000 0.0000 0.0000 12.1630 25.1814 -14.0822 -1.8422 -8.5294 24.3341 0.9903 -20.9741 -20.6255 -0.2841 -3.4280 9.4726 -0.8209 -2.4001 5.0554 3.2759 -3.2113 1.3328 4.0257 -1.6187 -1.2252 -8.2104 -8.9776 -4.8039 8.5541 -14.5431 27.0151 2.7615 -6.8488 10.6890 -0.0000 0.0000 0.0000 -91.9404 -4.0220 9.4166 15.1299 -24.3268 -3.2793 -0.0000 -0.0000 0.8530 24.0098 22.7057 9.7559 -7.1250 0.0000 -0.0000 -5.3178 54.5121 -1.2455 -0.0000 0.0000 0.0000 79.2101 0.0093 16.4562 -14.2264 23.0575 -2.9162 0.0000 0.0000 17.5240 -25.1574 -0.8918 0.4188 7.1250 -0.0000 -0.0000 1.1237 -30.9639 0.3855
9.1100 18.9965 5.2751 10.0434 -47.4038 -2.5903 0.0000 0.0000 0.0000 -25.0998 11.4372 -1.1179 1.9211 8.6998 24.8606 -0.6768 15.2273 -11.0198 1.6349 -8.0601 -22.8969 0.0000 0.0000 0.0000 12.4225 25.2034 -13.8535 -1.8721 -8.5944 24.5344 0.8665 -20.2545 -20.5831 -0.2989 -3.5152 9.7164 -0.9249 -2.3339 4.9944 3.2686 -3.1290 1.3242 4.0695 -1.5777 -1.2010 -8.5833 -8.9024 -4.5650 8.9261 -14.4810 26.7990 2.9736 -6.8349 10.6168 -0.0000 0.0000 0.0000 -91.8519 -3.9553 9.0024 15.0040 -24.1516 -3.2276 -0.0000 -0.0000 0.6910 23.7311 22.7030 9.6298 -7.1250 0.0000 -0.0000 -5.6078 54.4537 -1.3057 -0.0000 0.0000 0.0000 79.2279 0.2005 16.6521 -14.3696 23.2606 -2.9725 0.0000 0.0000 17.2885 -24.3819 0.9367 -0.4245 7.1250 -0.0000 -0.0000 1.7065 -28.9496 0.6675
9.0055 18.9962 5.2959 10.1996 -48.0652 -2.8271 0.0000 0.0000 0.0000 -24.8447 11.9364 -1.6668 2.1094 9.0903 26.0782 -0.7200 15.3919 -10.1792 1.7141 -8.2433 -23.4555 0.0000 0.0000 0.0000 12.7872 25.2367 -13.5880 -1.9015 -8.6579 24.7309 0.7843 -19.6924 -20.4112 -0.2961 -3.4988 9.6708 -0.9645 -2.2357 4.9650 3.2732 -2.9997 1.2919 4.0892 -1.5123 -1.2255 -8.2896 -8.8304 -4.7173 8.4232 -14.3231 27.1491 2.7614 -6.7760 10.6947 -0.0000 0.0000 0.0000 -91.7621 -3.9203 8.5465 14.8161 -23.8894 -3.1511 -0.0000 -0.0000 0.5998 23.3665 22.8508 9.5242 -7.1250 0.0000 -0.0000 -6.0390 54.5365 -1.4188 -0.0000 0.0000 0.0000 79.1882 0.1326 17.4855 -14.7083 23.7381 -3.1075 0.0000 0.0000 16.1265 -23.4141 3.7106 -1.6053 7.1250 -0.0000 -0.0000 2.4319 -25.9363 1.1243
8.9015 18.9972 5.3162 10.5926 -48.6311 -3.2871 0.0000 0.0000 0.0000 -24.7473 12.2761 -2.1363 2.3172 9.4976 27.3647 -0.7381 15.4178 -9.5538 1.6094 -8.0000 -22.7141 0.0000 0.0000 0.0000 12.9704 25.1535 -13.2571 -1.9253 -8.7087 24.8883 0.6866 -19.0659 -20.3349 -0.2843 -3.4294 9.4765 -1.1849 -2.2181 4.9769 3.2191 -2.9878 1.2958 4.1571 -1.5060 -1.2205 -7.8793 -8.7430 -5.0032 7.8366 -14.1358 27.5658 2.4970 -6.6961 10.8064 0.0000 0.0000 0.0000 -91.6768 -3.8729 7.9265 14.6506 -23.6571 -3.0844 -0.0000 -0.0000 0.7529 23.2081 22.9560 9.4937 -7.1250 0.0000 -0.0000 -6.2412 54.6149 -1.4786 0.0000 0.0000 0.0000 79.1696 0.1562 18.3337 -15.0194 24.1731 -3.2339 0.0000 0.0000 15.2684 -23.7013 4.1148 -1.8042 7.1250 -0.0000 -0.0000 2.2152 -25.4870 1.0472
